<mxfile host="app.diagrams.net" modified="2023-08-22T04:54:50.077Z" agent="Mozilla/5.0 (Windows NT 10.0; Win64; x64; rv:108.0) Gecko/20100101 Firefox/108.0" etag="rNo5PEYFMIE71jQ11W6O" version="21.6.8" type="device">
  <diagram name="Page-1" id="LL36ehkONfQD5UCaYMZ2">
    <mxGraphModel dx="1100" dy="534" grid="1" gridSize="10" guides="1" tooltips="1" connect="1" arrows="1" fold="1" page="1" pageScale="1" pageWidth="850" pageHeight="1100" math="0" shadow="0">
      <root>
        <mxCell id="0" />
        <mxCell id="1" parent="0" />
        <mxCell id="gzJktxfj4CubdQNpy2__-75" style="edgeStyle=orthogonalEdgeStyle;rounded=0;orthogonalLoop=1;jettySize=auto;html=1;exitX=0.5;exitY=0;exitDx=0;exitDy=0;" edge="1" parent="1" source="gzJktxfj4CubdQNpy2__-44">
          <mxGeometry relative="1" as="geometry">
            <mxPoint x="224.52631578947376" y="80" as="targetPoint" />
          </mxGeometry>
        </mxCell>
        <mxCell id="gzJktxfj4CubdQNpy2__-76" style="edgeStyle=orthogonalEdgeStyle;rounded=0;orthogonalLoop=1;jettySize=auto;html=1;exitX=1;exitY=0;exitDx=0;exitDy=0;entryX=0;entryY=0.5;entryDx=0;entryDy=0;" edge="1" parent="1" source="gzJktxfj4CubdQNpy2__-44" target="gzJktxfj4CubdQNpy2__-16">
          <mxGeometry relative="1" as="geometry" />
        </mxCell>
        <mxCell id="gzJktxfj4CubdQNpy2__-77" style="edgeStyle=orthogonalEdgeStyle;rounded=0;orthogonalLoop=1;jettySize=auto;html=1;exitX=1;exitY=0.5;exitDx=0;exitDy=0;entryX=0;entryY=0.25;entryDx=0;entryDy=0;" edge="1" parent="1" source="gzJktxfj4CubdQNpy2__-44" target="gzJktxfj4CubdQNpy2__-23">
          <mxGeometry relative="1" as="geometry" />
        </mxCell>
        <mxCell id="gzJktxfj4CubdQNpy2__-78" style="edgeStyle=orthogonalEdgeStyle;rounded=0;orthogonalLoop=1;jettySize=auto;html=1;exitX=1;exitY=0;exitDx=0;exitDy=0;entryX=0.083;entryY=0.678;entryDx=0;entryDy=0;entryPerimeter=0;" edge="1" parent="1" source="gzJktxfj4CubdQNpy2__-44" target="gzJktxfj4CubdQNpy2__-24">
          <mxGeometry relative="1" as="geometry" />
        </mxCell>
        <mxCell id="gzJktxfj4CubdQNpy2__-80" style="edgeStyle=orthogonalEdgeStyle;rounded=0;orthogonalLoop=1;jettySize=auto;html=1;exitX=1;exitY=1;exitDx=0;exitDy=0;entryX=0;entryY=0.5;entryDx=0;entryDy=0;" edge="1" parent="1" source="gzJktxfj4CubdQNpy2__-44" target="gzJktxfj4CubdQNpy2__-18">
          <mxGeometry relative="1" as="geometry" />
        </mxCell>
        <mxCell id="gzJktxfj4CubdQNpy2__-81" style="edgeStyle=orthogonalEdgeStyle;rounded=0;orthogonalLoop=1;jettySize=auto;html=1;exitX=1;exitY=1;exitDx=0;exitDy=0;entryX=0;entryY=0.75;entryDx=0;entryDy=0;" edge="1" parent="1" source="gzJktxfj4CubdQNpy2__-44" target="gzJktxfj4CubdQNpy2__-20">
          <mxGeometry relative="1" as="geometry" />
        </mxCell>
        <mxCell id="gzJktxfj4CubdQNpy2__-82" style="edgeStyle=orthogonalEdgeStyle;rounded=0;orthogonalLoop=1;jettySize=auto;html=1;exitX=0.5;exitY=1;exitDx=0;exitDy=0;entryX=1;entryY=0.75;entryDx=0;entryDy=0;" edge="1" parent="1" source="gzJktxfj4CubdQNpy2__-44" target="gzJktxfj4CubdQNpy2__-35">
          <mxGeometry relative="1" as="geometry" />
        </mxCell>
        <mxCell id="gzJktxfj4CubdQNpy2__-83" style="edgeStyle=orthogonalEdgeStyle;rounded=0;orthogonalLoop=1;jettySize=auto;html=1;exitX=0.5;exitY=1;exitDx=0;exitDy=0;entryX=1;entryY=0.75;entryDx=0;entryDy=0;" edge="1" parent="1" source="gzJktxfj4CubdQNpy2__-44" target="gzJktxfj4CubdQNpy2__-22">
          <mxGeometry relative="1" as="geometry" />
        </mxCell>
        <mxCell id="gzJktxfj4CubdQNpy2__-84" style="edgeStyle=orthogonalEdgeStyle;rounded=0;orthogonalLoop=1;jettySize=auto;html=1;exitX=0;exitY=1;exitDx=0;exitDy=0;entryX=1;entryY=0.75;entryDx=0;entryDy=0;" edge="1" parent="1" source="gzJktxfj4CubdQNpy2__-44" target="gzJktxfj4CubdQNpy2__-15">
          <mxGeometry relative="1" as="geometry" />
        </mxCell>
        <mxCell id="gzJktxfj4CubdQNpy2__-85" style="edgeStyle=orthogonalEdgeStyle;rounded=0;orthogonalLoop=1;jettySize=auto;html=1;exitX=0;exitY=0.5;exitDx=0;exitDy=0;entryX=1;entryY=0.5;entryDx=0;entryDy=0;" edge="1" parent="1" source="gzJktxfj4CubdQNpy2__-44" target="gzJktxfj4CubdQNpy2__-21">
          <mxGeometry relative="1" as="geometry" />
        </mxCell>
        <mxCell id="gzJktxfj4CubdQNpy2__-86" style="edgeStyle=orthogonalEdgeStyle;rounded=0;orthogonalLoop=1;jettySize=auto;html=1;exitX=0;exitY=0;exitDx=0;exitDy=0;entryX=1;entryY=0.5;entryDx=0;entryDy=0;" edge="1" parent="1" source="gzJktxfj4CubdQNpy2__-44" target="gzJktxfj4CubdQNpy2__-19">
          <mxGeometry relative="1" as="geometry" />
        </mxCell>
        <mxCell id="gzJktxfj4CubdQNpy2__-94" style="edgeStyle=orthogonalEdgeStyle;rounded=0;orthogonalLoop=1;jettySize=auto;html=1;exitX=0.5;exitY=1;exitDx=0;exitDy=0;entryX=1;entryY=0.75;entryDx=0;entryDy=0;" edge="1" parent="1" source="gzJktxfj4CubdQNpy2__-44" target="gzJktxfj4CubdQNpy2__-93">
          <mxGeometry relative="1" as="geometry" />
        </mxCell>
        <mxCell id="gzJktxfj4CubdQNpy2__-44" value="" style="ellipse;whiteSpace=wrap;html=1;" vertex="1" parent="1">
          <mxGeometry x="180" y="150" width="90" height="120" as="geometry" />
        </mxCell>
        <mxCell id="gzJktxfj4CubdQNpy2__-2" value="Sign Up &amp;amp; Login" style="rounded=1;whiteSpace=wrap;html=1;" vertex="1" parent="1">
          <mxGeometry x="170" y="30" width="110" height="40" as="geometry" />
        </mxCell>
        <mxCell id="gzJktxfj4CubdQNpy2__-15" value="Movie listing" style="rounded=1;whiteSpace=wrap;html=1;" vertex="1" parent="1">
          <mxGeometry x="30" y="210" width="110" height="40" as="geometry" />
        </mxCell>
        <mxCell id="gzJktxfj4CubdQNpy2__-16" value="User Accounts" style="rounded=1;whiteSpace=wrap;html=1;" vertex="1" parent="1">
          <mxGeometry x="310" y="70" width="110" height="40" as="geometry" />
        </mxCell>
        <mxCell id="gzJktxfj4CubdQNpy2__-18" value="Online Payments" style="rounded=1;whiteSpace=wrap;html=1;" vertex="1" parent="1">
          <mxGeometry x="315" y="330" width="110" height="40" as="geometry" />
        </mxCell>
        <mxCell id="gzJktxfj4CubdQNpy2__-19" value="User friendly interface" style="rounded=1;whiteSpace=wrap;html=1;" vertex="1" parent="1">
          <mxGeometry x="30" y="60" width="110" height="40" as="geometry" />
        </mxCell>
        <mxCell id="gzJktxfj4CubdQNpy2__-20" value="Showtimes and Venues" style="rounded=1;whiteSpace=wrap;html=1;" vertex="1" parent="1">
          <mxGeometry x="315" y="260" width="110" height="40" as="geometry" />
        </mxCell>
        <mxCell id="gzJktxfj4CubdQNpy2__-21" value="Notifications" style="rounded=1;whiteSpace=wrap;html=1;" vertex="1" parent="1">
          <mxGeometry x="30" y="130" width="110" height="40" as="geometry" />
        </mxCell>
        <mxCell id="gzJktxfj4CubdQNpy2__-22" value="Seat Selection" style="rounded=1;whiteSpace=wrap;html=1;" vertex="1" parent="1">
          <mxGeometry x="30" y="280" width="110" height="40" as="geometry" />
        </mxCell>
        <mxCell id="gzJktxfj4CubdQNpy2__-23" value="User Feedback rating" style="rounded=1;whiteSpace=wrap;html=1;" vertex="1" parent="1">
          <mxGeometry x="315" y="200" width="110" height="40" as="geometry" />
        </mxCell>
        <mxCell id="gzJktxfj4CubdQNpy2__-24" value="Customer support" style="rounded=1;whiteSpace=wrap;html=1;" vertex="1" parent="1">
          <mxGeometry x="310" y="140" width="120" height="40" as="geometry" />
        </mxCell>
        <mxCell id="gzJktxfj4CubdQNpy2__-35" value="Ticket Reservation" style="rounded=1;whiteSpace=wrap;html=1;" vertex="1" parent="1">
          <mxGeometry x="30" y="420" width="110" height="40" as="geometry" />
        </mxCell>
        <mxCell id="gzJktxfj4CubdQNpy2__-61" style="edgeStyle=orthogonalEdgeStyle;rounded=0;orthogonalLoop=1;jettySize=auto;html=1;exitX=1;exitY=0.5;exitDx=0;exitDy=0;" edge="1" parent="1" source="gzJktxfj4CubdQNpy2__-48">
          <mxGeometry relative="1" as="geometry">
            <mxPoint x="659.9999999999998" y="210.26315789473688" as="targetPoint" />
          </mxGeometry>
        </mxCell>
        <mxCell id="gzJktxfj4CubdQNpy2__-63" style="edgeStyle=orthogonalEdgeStyle;rounded=0;orthogonalLoop=1;jettySize=auto;html=1;exitX=1;exitY=1;exitDx=0;exitDy=0;entryX=0;entryY=0.25;entryDx=0;entryDy=0;" edge="1" parent="1" source="gzJktxfj4CubdQNpy2__-48" target="gzJktxfj4CubdQNpy2__-57">
          <mxGeometry relative="1" as="geometry" />
        </mxCell>
        <mxCell id="gzJktxfj4CubdQNpy2__-64" style="edgeStyle=orthogonalEdgeStyle;rounded=0;orthogonalLoop=1;jettySize=auto;html=1;exitX=1;exitY=1;exitDx=0;exitDy=0;entryX=0;entryY=0.75;entryDx=0;entryDy=0;" edge="1" parent="1" source="gzJktxfj4CubdQNpy2__-48" target="gzJktxfj4CubdQNpy2__-56">
          <mxGeometry relative="1" as="geometry" />
        </mxCell>
        <mxCell id="gzJktxfj4CubdQNpy2__-65" style="edgeStyle=orthogonalEdgeStyle;rounded=0;orthogonalLoop=1;jettySize=auto;html=1;exitX=1;exitY=0;exitDx=0;exitDy=0;entryX=0;entryY=0.5;entryDx=0;entryDy=0;" edge="1" parent="1" source="gzJktxfj4CubdQNpy2__-48" target="gzJktxfj4CubdQNpy2__-54">
          <mxGeometry relative="1" as="geometry" />
        </mxCell>
        <mxCell id="gzJktxfj4CubdQNpy2__-66" style="edgeStyle=orthogonalEdgeStyle;rounded=0;orthogonalLoop=1;jettySize=auto;html=1;exitX=1;exitY=0;exitDx=0;exitDy=0;entryX=0;entryY=0.25;entryDx=0;entryDy=0;" edge="1" parent="1" source="gzJktxfj4CubdQNpy2__-48" target="gzJktxfj4CubdQNpy2__-53">
          <mxGeometry relative="1" as="geometry" />
        </mxCell>
        <mxCell id="gzJktxfj4CubdQNpy2__-68" style="edgeStyle=orthogonalEdgeStyle;rounded=0;orthogonalLoop=1;jettySize=auto;html=1;exitX=0;exitY=0;exitDx=0;exitDy=0;entryX=1;entryY=0.25;entryDx=0;entryDy=0;" edge="1" parent="1" source="gzJktxfj4CubdQNpy2__-48" target="gzJktxfj4CubdQNpy2__-24">
          <mxGeometry relative="1" as="geometry" />
        </mxCell>
        <mxCell id="gzJktxfj4CubdQNpy2__-71" style="edgeStyle=orthogonalEdgeStyle;rounded=0;orthogonalLoop=1;jettySize=auto;html=1;exitX=0;exitY=0.75;exitDx=0;exitDy=0;" edge="1" parent="1" source="gzJktxfj4CubdQNpy2__-48">
          <mxGeometry relative="1" as="geometry">
            <mxPoint x="430" y="217.63157894736844" as="targetPoint" />
          </mxGeometry>
        </mxCell>
        <mxCell id="gzJktxfj4CubdQNpy2__-73" style="edgeStyle=orthogonalEdgeStyle;rounded=0;orthogonalLoop=1;jettySize=auto;html=1;exitX=0;exitY=1;exitDx=0;exitDy=0;entryX=1;entryY=0.75;entryDx=0;entryDy=0;" edge="1" parent="1" source="gzJktxfj4CubdQNpy2__-48" target="gzJktxfj4CubdQNpy2__-20">
          <mxGeometry relative="1" as="geometry" />
        </mxCell>
        <mxCell id="gzJktxfj4CubdQNpy2__-74" style="edgeStyle=orthogonalEdgeStyle;rounded=0;orthogonalLoop=1;jettySize=auto;html=1;exitX=0;exitY=1;exitDx=0;exitDy=0;entryX=1;entryY=0.75;entryDx=0;entryDy=0;" edge="1" parent="1" source="gzJktxfj4CubdQNpy2__-48" target="gzJktxfj4CubdQNpy2__-18">
          <mxGeometry relative="1" as="geometry" />
        </mxCell>
        <mxCell id="gzJktxfj4CubdQNpy2__-48" value="Admin Panel" style="rounded=0;whiteSpace=wrap;html=1;" vertex="1" parent="1">
          <mxGeometry x="510" y="195" width="80" height="30" as="geometry" />
        </mxCell>
        <mxCell id="gzJktxfj4CubdQNpy2__-53" value="&lt;br&gt;Manage Movie listing&lt;br&gt;&lt;div&gt;&lt;br&gt;&lt;/div&gt;" style="rounded=1;whiteSpace=wrap;html=1;" vertex="1" parent="1">
          <mxGeometry x="670" y="93" width="130" height="30" as="geometry" />
        </mxCell>
        <mxCell id="gzJktxfj4CubdQNpy2__-54" value="&lt;br&gt;Seating Arrangement&lt;br&gt;&lt;div&gt;&lt;br&gt;&lt;/div&gt;" style="rounded=1;whiteSpace=wrap;html=1;" vertex="1" parent="1">
          <mxGeometry x="670" y="140" width="130" height="30" as="geometry" />
        </mxCell>
        <mxCell id="gzJktxfj4CubdQNpy2__-55" value="&lt;br&gt;Handle Refunds&lt;br&gt;&lt;div&gt;&lt;br&gt;&lt;/div&gt;" style="rounded=1;whiteSpace=wrap;html=1;" vertex="1" parent="1">
          <mxGeometry x="670" y="190" width="130" height="30" as="geometry" />
        </mxCell>
        <mxCell id="gzJktxfj4CubdQNpy2__-56" value="&lt;br&gt;Resolve any issues&lt;br&gt;&lt;div&gt;&lt;br&gt;&lt;/div&gt;" style="rounded=1;whiteSpace=wrap;html=1;" vertex="1" parent="1">
          <mxGeometry x="670" y="240" width="130" height="30" as="geometry" />
        </mxCell>
        <mxCell id="gzJktxfj4CubdQNpy2__-57" value="Monitor Bookings" style="rounded=1;whiteSpace=wrap;html=1;" vertex="1" parent="1">
          <mxGeometry x="670" y="290" width="130" height="30" as="geometry" />
        </mxCell>
        <mxCell id="gzJktxfj4CubdQNpy2__-89" value="Actors" style="shape=umlActor;verticalLabelPosition=bottom;verticalAlign=top;html=1;outlineConnect=0;" vertex="1" parent="1">
          <mxGeometry x="215" y="195" width="20" height="30" as="geometry" />
        </mxCell>
        <mxCell id="gzJktxfj4CubdQNpy2__-91" value="" style="shape=umlActor;verticalLabelPosition=bottom;verticalAlign=top;html=1;outlineConnect=0;" vertex="1" parent="1">
          <mxGeometry x="235" y="190" width="20" height="30" as="geometry" />
        </mxCell>
        <mxCell id="gzJktxfj4CubdQNpy2__-92" value="" style="shape=umlActor;verticalLabelPosition=bottom;verticalAlign=top;html=1;outlineConnect=0;" vertex="1" parent="1">
          <mxGeometry x="195" y="190" width="20" height="30" as="geometry" />
        </mxCell>
        <mxCell id="gzJktxfj4CubdQNpy2__-93" value="Seat Cancelation" style="rounded=1;whiteSpace=wrap;html=1;" vertex="1" parent="1">
          <mxGeometry x="28" y="350" width="110" height="40" as="geometry" />
        </mxCell>
      </root>
    </mxGraphModel>
  </diagram>
</mxfile>
